# xmcd
#
# Track frame offsets:
#	150
#	15767
#	30485
#	44953
#	62028
#	79620
#	93471
#	111899
#	129794
#	148391
#	172310
#	190090
#
# Disc length: 2815 seconds
#
# Revision: 1
# Processed by: cddbd v1.5.2PL0 Copyright (c) Steve Scherf et al.
# Submitted via: audiograbber 1.83.01
#
DISCID=a10afd0c
DTITLE=Sheila Marshall - What If I Was
DYEAR=2009
DGENRE=Country
TTITLE0=I Ain't Yo Baby
TTITLE1=What If I Was
TTITLE2=What Will You Say About Me
TTITLE3=Zip Zero
TTITLE4=Even If It Hurts
TTITLE5=Nothin's Been Right
TTITLE6=Brand New Day
TTITLE7=Livin' on Love
TTITLE8=Believe
TTITLE9=Angel From Montgmery
TTITLE10=Going Down
TTITLE11=The Big Revival
EXTD=
EXTT0=
EXTT1=
EXTT2=
EXTT3=
EXTT4=
EXTT5=
EXTT6=
EXTT7=
EXTT8=
EXTT9=
EXTT10=
EXTT11=
PLAYORDER=
